<svg xmlns="http://www.w3.org/2000/svg" version="1.1" xmlns:xlink="http://www.w3.org/1999/xlink" xmlns:svgjs="http://svgjs.dev/svgjs" width="1000" height="227" viewBox="0 0 1000 227"><g transform="matrix(1,0,0,1,-0.6060606060606233,0.2622179056090914)"><svg viewBox="0 0 396 90" data-background-color="#001f3f" preserveAspectRatio="xMidYMid meet" height="227" width="1000" xmlns="http://www.w3.org/2000/svg" xmlns:xlink="http://www.w3.org/1999/xlink"><g id="tight-bounds" transform="matrix(1,0,0,1,0.2400000000000091,-0.10396304627673203)"><svg viewBox="0 0 395.52 90.20792609255346" height="90.20792609255346" width="395.52"><g><svg viewBox="0 0 539.6160070631745 123.07251436972504" height="90.20792609255346" width="395.52"><g transform="matrix(1,0,0,1,0,17.009298295671123)"><svg viewBox="0 0 395.52 89.0539177783828" height="89.0539177783828" width="395.52"><g><svg viewBox="0 0 395.52 89.0539177783828" height="89.0539177783828" width="395.52"><g><svg viewBox="0 0 395.52 89.0539177783828" height="89.0539177783828" width="395.52"><g transform="matrix(1,0,0,1,0,0)"><svg width="395.52" viewBox="1.3 -40.3 183.64 41.349999999999994" height="89.0539177783828" data-palette-color="#ffffff"><path d="M44.55-36.05L39.8-31.95 39.8 0.1 35 0.1 11.65-25.7 11.65-6.25 19.35-3.6 17.55 0.05 2.2 0.05 2.2-3.15 6.9-7.2 6.9-32.5 1.3-35.7 3.1-39.3 12.25-39.3 35-14.25 35-33.05 27.4-35.7 29.2-39.3 44.55-39.3 44.55-36.05ZM83.5 0.9L79.6 0 47.55 0 47.55-3.2 52.25-6.9 52.25-34.1 46.65-35.7 48.45-39.3 79.1-39.3 83-40.2 83-27.1 79.85-25.75 73.65-35 62.15-35 62.15-22.2 67.55-22.2 71.2-27.6 74.4-27.6 74.4-13.2 70.75-11.4 67.45-17.95 62.15-17.95 62.15-4.3 73.2-4.3 80.35-14.55 83.5-13.25 83.5 0.9ZM151.85-36.15L146.55-32.2 135.69-1.6 126.05 0.95 119.25-18.1 114.2-1.6 104.5 0.95 91.15-33.3 86.1-35.7 87.9-39.3 104.85-39.3 104.85-36.15 101.35-33.6 111.15-8 116.55-25.5 113.75-33.35 109.2-35.7 111-39.3 129.35-39.3 129.35-36.15 124.2-33.15 132.9-7.95 141.19-31.8 133.6-35.7 135.4-39.3 151.8-39.3 151.85-36.15ZM174.44-8.05Q174.44-9.55 173.27-10.9 172.09-12.25 170.39-13.38 168.69-14.5 165.64-16.25L165.64-16.25Q161.89-18.4 159.64-19.93 157.39-21.45 155.79-23.53 154.19-25.6 154.19-28.1L154.19-28.1Q154.19-30.6 156.54-33.48 158.89-36.35 162.32-38.33 165.74-40.3 168.59-40.3L168.59-40.3Q172.04-40.3 176.67-39.55 181.29-38.8 183.44-37.95L183.44-37.95 183.44-26.65 177.84-26.65Q175.94-30.7 173.49-32.95 171.04-35.2 168.39-35.2L168.39-35.2Q166.64-35.2 165.64-34.08 164.64-32.95 164.64-31.2L164.64-31.2Q164.64-29.6 165.84-28.18 167.04-26.75 168.82-25.58 170.59-24.4 173.69-22.7L173.69-22.7Q177.34-20.65 179.57-19.15 181.79-17.65 183.37-15.63 184.94-13.6 184.94-11.15L184.94-11.15Q184.94-8.65 182.42-5.78 179.89-2.9 176.29-0.93 172.69 1.05 169.69 1.05L169.69 1.05Q166.04 1.05 161.09 0.3 156.14-0.45 153.94-1.3L153.94-1.3 153.94-12.65 159.49-12.65Q161.54-8.6 164.32-6.35 167.09-4.1 169.94-4.1L169.94-4.1Q171.99-4.1 173.22-5.25 174.44-6.4 174.44-8.05L174.44-8.05Z" opacity="1" transform="matrix(1,0,0,1,0,0)" fill="#ffffff" class="undefined-text-0" data-fill-palette-color="primary" id="text-0"></path></svg></g></svg></g></svg></g></svg></g><g transform="matrix(1,0,0,1,416.5434926934495,0)"><svg viewBox="0 0 123.07251436972504 123.07251436972504" height="123.07251436972504" width="123.07251436972504"><g data-palette-color="#aaaaaa"><rect width="33.639820594391516" height="123.07251436972504" fill="#aaaaaa" stroke="transparent" data-fill-palette-color="accent" x="0" fill-opacity="1"></rect><rect width="33.639820594391516" height="123.07251436972504" fill="#aaaaaa" stroke="transparent" data-fill-palette-color="accent" x="41.02417145657502" fill-opacity="0.75"></rect><rect width="33.639820594391516" height="123.07251436972504" fill="#aaaaaa" stroke="transparent" data-fill-palette-color="accent" x="82.04834291315004" fill-opacity="0.5"></rect></g></svg></g></svg></g><defs></defs></svg><rect width="395.52" height="90.20792609255346" fill="none" stroke="none" visibility="hidden"></rect></g></svg></g></svg>